HIERARCHY
ROOT Hips
{
 OFFSET 0.000000 0.000000 0.000000
 CHANNELS 6 Xposition Yposition Zposition Yrotation Xrotation Zrotation
 JOINT Chest
 {
  OFFSET 0.000000 10.383400 0.001500
  CHANNELS 3 Yrotation Xrotation Zrotation
  JOINT Chest2
  {
   OFFSET 0.000000 10.418200 -0.003100
   CHANNELS 3 Yrotation Xrotation Zrotation
   JOINT Chest3
   {
    OFFSET 0.000000 10.375100 0.000000
    CHANNELS 3 Yrotation Xrotation Zrotation
    JOINT Chest4
    {
     OFFSET 0.000000 10.364600 0.000000
     CHANNELS 3 Yrotation Xrotation Zrotation
     JOINT Neck
     {
      OFFSET 0.000000 15.642200 0.000000
      CHANNELS 3 Yrotation Xrotation Zrotation
      JOINT Head
      {
       OFFSET 0.000000 9.697300 -0.006500
       CHANNELS 3 Yrotation Xrotation Zrotation
       End Site
       {
        OFFSET 0.000000 18.492200 -0.003400
       }
      }
     }
     JOINT RightCollar
     {
      OFFSET -3.166800 10.349300 0.000000
      CHANNELS 3 Yrotation Xrotation Zrotation
      JOINT RightShoulder
      {
       OFFSET -14.729700 0.000000 0.000000
       CHANNELS 3 Yrotation Xrotation Zrotation
       JOINT RightElbow
       {
        OFFSET 0.000000 -32.224300 0.000000
        CHANNELS 3 Yrotation Xrotation Zrotation
        JOINT RightWrist
        {
         OFFSET 0.000000 -26.084100 0.000000
         CHANNELS 3 Yrotation Xrotation Zrotation
         End Site
         {
          OFFSET 0.000000 -19.319400 0.000000
         }
        }
       }
      }
     }
     JOINT LeftCollar
     {
      OFFSET 3.166800 10.349300 0.000000
      CHANNELS 3 Yrotation Xrotation Zrotation
      JOINT LeftShoulder
      {
       OFFSET 14.729700 0.000000 0.000000
       CHANNELS 3 Yrotation Xrotation Zrotation
       JOINT LeftElbow
       {
        OFFSET 0.000000 -32.224300 0.000000
        CHANNELS 3 Yrotation Xrotation Zrotation
        JOINT LeftWrist
        {
         OFFSET 0.000000 -26.084100 0.000000
         CHANNELS 3 Yrotation Xrotation Zrotation
         End Site
         {
          OFFSET 0.000000 -19.319400 0.000000
         }
        }
       }
      }
     }
    }
   }
  }
 }
 JOINT RightHip
 {
  OFFSET -8.428900 -0.007500 -0.000800
  CHANNELS 3 Yrotation Xrotation Zrotation
  JOINT RightKnee
  {
   OFFSET 0.000000 -43.834600 0.000700
   CHANNELS 3 Yrotation Xrotation Zrotation
   JOINT RightAnkle
   {
    OFFSET 0.000000 -42.757000 0.001200
    CHANNELS 3 Yrotation Xrotation Zrotation
    JOINT RightToe
    {
     OFFSET 0.000000 -6.946900 15.649300
     CHANNELS 3 Yrotation Xrotation Zrotation
     End Site
     {
      OFFSET 0.000000 -1.580800 6.825800
     }
    }
   }
  }
 }
 JOINT LeftHip
 {
  OFFSET 8.428900 -0.007500 -0.000800
  CHANNELS 3 Yrotation Xrotation Zrotation
  JOINT LeftKnee
  {
   OFFSET 0.000000 -43.834600 0.000700
   CHANNELS 3 Yrotation Xrotation Zrotation
   JOINT LeftAnkle
   {
    OFFSET 0.000000 -42.757000 0.001200
    CHANNELS 3 Yrotation Xrotation Zrotation
    JOINT LeftToe
    {
     OFFSET 0.000000 -6.946900 15.649300
     CHANNELS 3 Yrotation Xrotation Zrotation
     End Site
     {
      OFFSET 0.000000 -1.580800 6.825800
     }
    }
   }
  }
 }
}
MOTION
Frames: 5
Frame Time: 0.008333
-4.097999 126.216087 1.413944 174.326228 -16.561415 -3.830570 -0.170700 18.323351 2.127132 -0.053340 2.080114 0.242665 -0.083647 3.442788 0.400884 -0.186421 15.959769 1.854848 -4.007711 8.628574 1.778035 -4.838104 -16.588752 2.926765 -6.014141 -1.049683 -6.972522 -8.484658 -5.879098 0.504556 163.983626 -60.052845 -163.476397 3.595680 -20.120892 -59.808839 -1.868277 -0.963663 4.209372 36.864335 -13.625666 15.360633 129.515688 -45.908835 -151.167549 4.119482 -21.101943 20.686963 4.450516 -53.110700 9.012984 -87.255604 83.808962 -83.847096 -1.242012 -15.904831 2.581321 -0.001057 -0.006563 -0.000469 -0.453618 -54.201774 -2.673747 103.272986 79.107827 109.165936 8.901107 -14.363306 -9.199174 -0.002777 0.000428 -0.001233
-4.097233 126.216360 1.414689 174.326186 -16.566226 -3.831274 -0.160011 18.322523 2.129491 -0.052568 2.080279 0.241884 -0.082307 3.443112 0.399589 -0.180517 15.960795 1.849736 -4.014618 8.642518 1.788457 -4.833387 -16.576897 2.925371 -6.003729 -1.061428 -6.963289 -8.502217 -5.843575 0.496907 163.973959 -60.064757 -163.456879 3.601903 -20.103084 -59.841840 -1.887012 -0.973106 4.234499 36.853919 -13.611817 15.364768 129.538768 -45.908691 -151.179465 4.061243 -21.104389 20.689089 4.455403 -53.107546 9.011528 -87.291317 83.807632 -83.877600 -1.240995 -15.908609 2.579767 -0.001330 -0.006243 -0.000590 -0.458306 -54.196191 -2.675676 103.272353 79.104003 109.180771 8.898558 -14.361984 -9.216191 0.003760 0.000425 0.001669
-4.097191 126.216610 1.415266 174.329383 -16.571422 -3.828309 -0.159961 18.325272 2.127185 -0.053763 2.081196 0.241320 -0.081891 3.443217 0.399346 -0.172650 15.960201 1.848556 -4.017948 8.653385 1.789283 -4.828865 -16.565588 2.924333 -5.999745 -1.070362 -6.960539 -8.507527 -5.813342 0.485998 163.944558 -60.071657 -163.425098 3.615529 -20.094585 -59.842436 -1.898452 -0.980511 4.247977 36.848318 -13.600064 15.367470 129.563959 -45.905251 -151.198047 4.044627 -21.099064 20.695659 4.458297 -53.102012 9.004872 -87.337959 83.810911 -83.922320 -1.242007 -15.916264 2.579305 -0.001901 -0.004918 -0.000844 -0.458746 -54.192648 -2.684823 103.266650 79.099442 109.181870 8.898511 -14.358067 -9.224164 0.005314 -0.000736 0.002359
-4.096911 126.216692 1.416470 174.331823 -16.573014 -3.826471 -0.161555 18.326097 2.125379 -0.051989 2.080436 0.241655 -0.081401 3.443472 0.399251 -0.167693 15.960150 1.847819 -4.010448 8.671192 1.789997 -4.804863 -16.525015 2.924795 -5.991166 -1.083715 -6.959777 -8.507218 -5.762411 0.464188 163.913795 -60.060168 -163.406877 3.630403 -20.078192 -59.820189 -1.911928 -0.986333 4.258849 36.859669 -13.596831 15.364661 129.692746 -45.915789 -151.306982 4.096923 -21.064178 20.710919 4.459485 -53.100489 8.999028 -87.363968 83.810228 -83.940795 -1.242176 -15.922200 2.570859 0.000481 -0.004754 0.000213 -0.459145 -54.192665 -2.691130 103.255411 79.095369 109.176513 8.889558 -14.354499 -9.224956 0.004036 -0.000719 0.001791
-4.096673 126.216808 1.417484 174.333902 -16.575106 -3.824121 -0.155110 18.324225 2.127228 -0.051805 2.080744 0.241566 -0.081017 3.443849 0.398922 -0.174771 15.962645 1.846836 -3.995345 8.684087 1.792283 -4.816370 -16.530722 2.927529 -5.971297 -1.098574 -6.960892 -8.509678 -5.712685 0.440007 163.891305 -60.044987 -163.403363 3.652268 -20.049921 -59.775272 -1.921214 -0.993683 4.268204 36.869704 -13.590803 15.364211 129.805847 -45.927278 -151.402276 4.012074 -21.053410 20.747250 4.464328 -53.097520 8.986015 -87.359489 83.816097 -83.932912 -1.236533 -15.926744 2.567761 -0.003438 -0.004453 -0.001526 -0.461418 -54.192340 -2.696739 103.250768 79.091777 109.171072 8.906567 -14.351597 -9.231980 0.006634 -0.000646 0.002945
